#Comment line ignore any data following # character 
#Hierarchical Translation and Rotation (.htr) file 
[Header]	
#Header keywords are followed by a single value 
FileType HTR		#Single word string
DataType HTRS		#Translation followed by rotation and scale data
FileVersion 1		#integer
NumSegments 84		#integer
NumFrames 2		#integer
DataFrameRate 30		#integer, data frame rate in this file
EulerRotationOrder ZYX
CalibrationUnits mm
RotationUnits Degrees
GlobalAxisofGravity Y
BoneLengthAxis Y
ScaleFactor 1.00
[SegmentNames&Hierarchy]
#CHILD	PARENT
MASTER GLOBAL
root MASTER
chest root
L_mid_tent01 root
R_mid_tent01 root
spine01 root
Bip01_Neck chest
L_humerus chest
R_humerus chest
weapon_bone chest
Bip01_Head Bip01_Neck
eye_left_bone Bip01_Head
eye_right_bone Bip01_Head
L_forearm L_humerus
L_front_hand L_forearm
L_weapon_bone L_forearm
L_front_hand01_01 L_front_hand
L_front_hand02_01 L_front_hand
L_front_hand03_01 L_front_hand
L_front_hand01_02 L_front_hand01_01
L_front_hand02_02 L_front_hand02_01
L_front_hand03_02 L_front_hand03_01
R_forearm R_humerus
R_front_hand R_forearm
R_weapon_bone R_forearm
R_front_hand01_01 R_front_hand
R_front_hand02_01 R_front_hand
R_front_hand03_01 R_front_hand
R_front_hand01_02 R_front_hand01_01
R_front_hand02_02 R_front_hand02_01
R_front_hand03_02 R_front_hand03_01
null_rope01_connect L_mid_tent01
Rope1_Seg01 null_rope01_connect
Rope1_Seg02 Rope1_Seg01
Rope1_Seg03 Rope1_Seg02
Rope1_Seg04 Rope1_Seg03
Rope1_Seg05 Rope1_Seg04
Rope1_Seg06 Rope1_Seg05
Rope1_Seg07 Rope1_Seg06
Rope1_Seg09 Rope1_Seg07
L_mid_hand01 Rope1_Seg09
L_mid_hand02 Rope1_Seg09
L_mid_hand03 Rope1_Seg09
null_rope02_connect R_mid_tent01
Rope2_Seg01 null_rope02_connect
Rope2_Seg02 Rope2_Seg01
Rope2_Seg03 Rope2_Seg02
Rope2_Seg04 Rope2_Seg03
Rope2_Seg05 Rope2_Seg04
Rope2_Seg06 Rope2_Seg05
Rope2_Seg07 Rope2_Seg06
Rope2_Seg09 Rope2_Seg07
R_mid_hand01 Rope2_Seg09
R_mid_hand02 Rope2_Seg09
R_mid_hand03 Rope2_Seg09
spine02 spine01
spine03 spine02
pelvis spine03
null_rope03_connect pelvis
null_rope04_connect pelvis
Rope3_Seg01 null_rope03_connect
Rope3_Seg02 Rope3_Seg01
Rope3_Seg03 Rope3_Seg02
Rope3_Seg04 Rope3_Seg03
Rope3_Seg05 Rope3_Seg04
Rope3_Seg06 Rope3_Seg05
Rope3_Seg07 Rope3_Seg06
Rope3_Seg08 Rope3_Seg07
Rope3_Seg09 Rope3_Seg08
R_rear_hand01 Rope3_Seg09
R_rear_hand02 Rope3_Seg09
R_rear_hand03 Rope3_Seg09
Rope4_Seg01 null_rope04_connect
Rope4_Seg02 Rope4_Seg01
Rope4_Seg03 Rope4_Seg02
Rope4_Seg04 Rope4_Seg03
Rope4_Seg05 Rope4_Seg04
Rope4_Seg06 Rope4_Seg05
Rope4_Seg07 Rope4_Seg06
Rope4_Seg08 Rope4_Seg07
Rope4_Seg09 Rope4_Seg08
L_rear_hand01 Rope4_Seg09
L_rear_hand02 Rope4_Seg09
L_rear_hand03 Rope4_Seg09
[BasePosition]
#SegmentName Tx, Ty, Tz, Rx, Ry, Rz, BoneLength
MASTER 0.000000 0.000000 0.000000 -90.000000 0.000000 0.000000 10.000000 
root 0.000000 0.000000 0.000000 0.000000 0.000000 0.000000 10.000000 
chest 0.000000 0.000000 0.000000 0.000000 0.000000 0.000000 10.000000 
L_mid_tent01 0.000000 0.000000 0.000000 0.000000 0.000000 0.000000 10.000000 
R_mid_tent01 0.000000 0.000000 0.000000 0.000000 0.000000 0.000000 10.000000 
spine01 0.000000 0.000000 0.000000 0.000000 0.000000 0.000000 10.000000 
Bip01_Neck 0.000000 0.000000 0.000000 0.000000 0.000000 0.000000 10.000000 
L_humerus 0.000000 0.000000 0.000000 0.000000 0.000000 0.000000 10.000000 
R_humerus 0.000000 0.000000 0.000000 0.000000 0.000000 0.000000 10.000000 
weapon_bone 0.000000 0.000000 0.000000 0.000000 0.000000 0.000000 10.000000 
Bip01_Head 0.000000 0.000000 0.000000 0.000000 0.000000 0.000000 10.000000 
eye_left_bone 0.000000 0.000000 0.000000 0.000000 0.000000 0.000000 10.000000 
eye_right_bone 0.000000 0.000000 0.000000 0.000000 0.000000 0.000000 10.000000 
L_forearm 0.000000 0.000000 0.000000 0.000000 0.000000 0.000000 10.000000 
L_front_hand 0.000000 0.000000 0.000000 0.000000 0.000000 0.000000 10.000000 
L_weapon_bone 0.000000 0.000000 0.000000 0.000000 0.000000 0.000000 10.000000 
L_front_hand01_01 0.000000 0.000000 0.000000 0.000000 0.000000 0.000000 10.000000 
L_front_hand02_01 0.000000 0.000000 0.000000 0.000000 0.000000 0.000000 10.000000 
L_front_hand03_01 0.000000 0.000000 0.000000 0.000000 0.000000 0.000000 10.000000 
L_front_hand01_02 0.000000 0.000000 0.000000 0.000000 0.000000 0.000000 10.000000 
L_front_hand02_02 0.000000 0.000000 0.000000 0.000000 0.000000 0.000000 10.000000 
L_front_hand03_02 0.000000 0.000000 0.000000 0.000000 0.000000 0.000000 10.000000 
R_forearm 0.000000 0.000000 0.000000 0.000000 0.000000 0.000000 10.000000 
R_front_hand 0.000000 0.000000 0.000000 0.000000 0.000000 0.000000 10.000000 
R_weapon_bone 0.000000 0.000000 0.000000 0.000000 0.000000 0.000000 10.000000 
R_front_hand01_01 0.000000 0.000000 0.000000 0.000000 0.000000 0.000000 10.000000 
R_front_hand02_01 0.000000 0.000000 0.000000 0.000000 0.000000 0.000000 10.000000 
R_front_hand03_01 0.000000 0.000000 0.000000 0.000000 0.000000 0.000000 10.000000 
R_front_hand01_02 0.000000 0.000000 0.000000 0.000000 0.000000 0.000000 10.000000 
R_front_hand02_02 0.000000 0.000000 0.000000 0.000000 0.000000 0.000000 10.000000 
R_front_hand03_02 0.000000 0.000000 0.000000 0.000000 0.000000 0.000000 10.000000 
null_rope01_connect 0.000000 0.000000 0.000000 0.000000 0.000000 0.000000 10.000000 
Rope1_Seg01 0.000000 0.000000 0.000000 0.000000 0.000000 0.000000 10.000000 
Rope1_Seg02 0.000000 0.000000 0.000000 0.000000 0.000000 0.000000 10.000000 
Rope1_Seg03 0.000000 0.000000 0.000000 0.000000 0.000000 0.000000 10.000000 
Rope1_Seg04 0.000000 0.000000 0.000000 0.000000 0.000000 0.000000 10.000000 
Rope1_Seg05 0.000000 0.000000 0.000000 0.000000 0.000000 0.000000 10.000000 
Rope1_Seg06 0.000000 0.000000 0.000000 0.000000 0.000000 0.000000 10.000000 
Rope1_Seg07 0.000000 0.000000 0.000000 0.000000 0.000000 0.000000 10.000000 
Rope1_Seg09 0.000000 0.000000 0.000000 0.000000 0.000000 0.000000 10.000000 
L_mid_hand01 0.000000 0.000000 0.000000 0.000000 0.000000 0.000000 10.000000 
L_mid_hand02 0.000000 0.000000 0.000000 0.000000 0.000000 0.000000 10.000000 
L_mid_hand03 0.000000 0.000000 0.000000 0.000000 0.000000 0.000000 10.000000 
null_rope02_connect 0.000000 0.000000 0.000000 0.000000 0.000000 0.000000 10.000000 
Rope2_Seg01 0.000000 0.000000 0.000000 0.000000 0.000000 0.000000 10.000000 
Rope2_Seg02 0.000000 0.000000 0.000000 0.000000 0.000000 0.000000 10.000000 
Rope2_Seg03 0.000000 0.000000 0.000000 0.000000 0.000000 0.000000 10.000000 
Rope2_Seg04 0.000000 0.000000 0.000000 0.000000 0.000000 0.000000 10.000000 
Rope2_Seg05 0.000000 0.000000 0.000000 0.000000 0.000000 0.000000 10.000000 
Rope2_Seg06 0.000000 0.000000 0.000000 0.000000 0.000000 0.000000 10.000000 
Rope2_Seg07 0.000000 0.000000 0.000000 0.000000 0.000000 0.000000 10.000000 
Rope2_Seg09 0.000000 0.000000 0.000000 0.000000 0.000000 0.000000 10.000000 
R_mid_hand01 0.000000 0.000000 0.000000 0.000000 0.000000 0.000000 10.000000 
R_mid_hand02 0.000000 0.000000 0.000000 0.000000 0.000000 0.000000 10.000000 
R_mid_hand03 0.000000 0.000000 0.000000 0.000000 0.000000 0.000000 10.000000 
spine02 0.000000 0.000000 0.000000 0.000000 0.000000 0.000000 10.000000 
spine03 0.000000 0.000000 0.000000 0.000000 0.000000 0.000000 10.000000 
pelvis 0.000000 0.000000 0.000000 0.000000 0.000000 0.000000 10.000000 
null_rope03_connect 0.000000 0.000000 0.000000 0.000000 0.000000 0.000000 10.000000 
null_rope04_connect 0.000000 0.000000 0.000000 0.000000 0.000000 0.000000 10.000000 
Rope3_Seg01 0.000000 0.000000 0.000000 0.000000 0.000000 0.000000 10.000000 
Rope3_Seg02 0.000000 0.000000 0.000000 0.000000 0.000000 0.000000 10.000000 
Rope3_Seg03 0.000000 0.000000 0.000000 0.000000 0.000000 0.000000 10.000000 
Rope3_Seg04 0.000000 0.000000 0.000000 0.000000 0.000000 0.000000 10.000000 
Rope3_Seg05 0.000000 0.000000 0.000000 0.000000 0.000000 0.000000 10.000000 
Rope3_Seg06 0.000000 0.000000 0.000000 0.000000 0.000000 0.000000 10.000000 
Rope3_Seg07 0.000000 0.000000 0.000000 0.000000 0.000000 0.000000 10.000000 
Rope3_Seg08 0.000000 0.000000 0.000000 0.000000 0.000000 0.000000 10.000000 
Rope3_Seg09 0.000000 0.000000 0.000000 0.000000 0.000000 0.000000 10.000000 
R_rear_hand01 0.000000 0.000000 0.000000 0.000000 0.000000 0.000000 10.000000 
R_rear_hand02 0.000000 0.000000 0.000000 0.000000 0.000000 0.000000 10.000000 
R_rear_hand03 0.000000 0.000000 0.000000 0.000000 0.000000 0.000000 10.000000 
Rope4_Seg01 0.000000 0.000000 0.000000 0.000000 0.000000 0.000000 10.000000 
Rope4_Seg02 0.000000 0.000000 0.000000 0.000000 0.000000 0.000000 10.000000 
Rope4_Seg03 0.000000 0.000000 0.000000 0.000000 0.000000 0.000000 10.000000 
Rope4_Seg04 0.000000 0.000000 0.000000 0.000000 0.000000 0.000000 10.000000 
Rope4_Seg05 0.000000 0.000000 0.000000 0.000000 0.000000 0.000000 10.000000 
Rope4_Seg06 0.000000 0.000000 0.000000 0.000000 0.000000 0.000000 10.000000 
Rope4_Seg07 0.000000 0.000000 0.000000 0.000000 0.000000 0.000000 10.000000 
Rope4_Seg08 0.000000 0.000000 0.000000 0.000000 0.000000 0.000000 10.000000 
Rope4_Seg09 0.000000 0.000000 0.000000 0.000000 0.000000 0.000000 10.000000 
L_rear_hand01 0.000000 0.000000 0.000000 0.000000 0.000000 0.000000 10.000000 
L_rear_hand02 0.000000 0.000000 0.000000 0.000000 0.000000 0.000000 10.000000 
L_rear_hand03 0.000000 0.000000 0.000000 0.000000 0.000000 0.000000 10.000000 
#Beginning of Data. Separated by tabs
#Fr	Tx	Ty	Tz	Rx	Ry	Rz	SF
[MASTER]
12 0.000003 0.000077 2457.157471 0.001660 0.001660 0.001660 2457.157471
13 0.000003 0.000072 2670.109863 0.001660 0.001660 0.001660 2670.109619
[root]
12 -16.502304 -3.545748 1453.162231 -74.956833 -16.259548 -96.274239 1453.260254
13 -16.502304 -4.818841 1453.936279 -70.939140 -13.628034 -97.969406 1454.037964
[chest]
12 -84.512650 -34.090519 0.000000 -1.225058 -1.955413 179.999420 91.129311
13 -84.512650 -34.090519 0.000000 -0.431420 -1.636083 174.616028 91.129311
[L_mid_tent01]
12 27.299084 22.179070 -249.918686 8.367194 14.298170 88.684540 252.381668
13 27.299084 22.179066 -249.918686 7.047044 12.503796 86.540985 252.381668
[R_mid_tent01]
12 23.228794 24.509907 226.238495 153.727356 -7.359570 93.749184 228.744751
13 23.228794 24.509907 226.238495 157.907516 -4.662415 86.645721 228.744751
[spine01]
12 -0.361383 -0.195265 0.000000 0.001912 0.001361 19.131336 0.410763
13 -0.361383 -0.195265 0.000000 0.001965 0.001283 23.717073 0.410763
[Bip01_Neck]
12 165.484543 71.581718 0.000119 176.643677 -1.657967 43.431911 180.302734
13 165.484543 71.581718 0.000119 176.643677 -1.657967 43.431911 180.302734
[L_humerus]
12 -13.983130 -135.272980 -120.471481 167.060196 28.179401 -73.772659 181.680161
13 -13.983130 -135.272980 -120.471481 165.712143 23.940041 -69.995911 181.680161
[R_humerus]
12 -13.983309 -135.273102 125.287651 -176.728348 -24.162457 -86.443039 184.909012
13 -13.983309 -135.273102 125.287651 -177.009964 -18.785477 -85.945915 184.909012
[weapon_bone]
12 235.964890 -300.705902 0.000000 0.000000 -89.951546 -128.212341 382.234833
13 235.964890 -300.705902 0.000000 0.000000 -89.951546 -128.212341 382.234833
[Bip01_Head]
12 213.437042 185.735626 11.518705 4.970815 8.175860 -43.795578 283.170929
13 213.432755 185.747375 11.366740 4.987290 10.061251 -43.762226 283.169250
[eye_left_bone]
12 -24.626970 125.451866 -64.772606 0.000000 -90.000000 -99.840431 143.318359
13 -24.626970 125.451866 -64.772606 0.000000 -90.000000 -99.840431 143.318359
[eye_right_bone]
12 -24.626970 125.451866 64.327362 0.000000 -89.965736 80.156380 143.117676
13 -24.626970 125.451866 64.327362 0.000000 -89.980217 80.156387 143.117676
[L_forearm]
12 322.776093 0.000000 -0.000119 0.000119 -0.002344 -95.807457 322.776093
13 322.776093 0.000000 -0.000119 0.000119 -0.002344 -95.807457 322.776093
[L_front_hand]
12 241.149185 -0.042021 -3.300071 -178.667953 -1.835447 -27.422350 241.171753
13 241.149185 -0.042021 -3.300071 -178.667953 -1.835447 -27.422350 241.171753
[L_weapon_bone]
12 156.183838 0.000000 0.000000 0.000014 0.000007 0.000001 156.183838
13 156.183838 0.000000 0.000000 0.000014 0.000007 0.000001 156.183838
[L_front_hand01_01]
12 86.095154 20.947098 -0.655860 -0.366594 -0.477154 75.385574 88.609184
13 86.095154 20.947098 -0.655860 -0.366594 -0.477154 75.385574 88.609184
[L_front_hand02_01]
12 86.935165 -11.437475 24.513514 154.399796 -59.883835 -61.369587 91.046425
13 86.935165 -11.437475 24.513514 154.399811 -59.883835 -61.369587 91.046425
[L_front_hand03_01]
12 86.637497 -14.123976 -20.424902 -153.913849 58.118122 -62.702866 90.126129
13 86.637497 -14.123976 -20.424902 -153.913879 58.118130 -62.702892 90.126129
[L_front_hand01_02]
12 71.020905 -0.000179 0.000030 0.000334 -0.002323 -106.379684 71.020905
13 71.020905 -0.000179 0.000030 0.000334 -0.002323 -106.379684 71.020905
[L_front_hand02_02]
12 71.020927 -0.000119 0.000060 0.000334 -0.002323 -106.379684 71.020927
13 71.020927 -0.000119 0.000060 0.000334 -0.002323 -106.379684 71.020927
[L_front_hand03_02]
12 71.020905 -0.000060 0.000060 0.000334 -0.002323 -106.379684 71.020905
13 71.020905 -0.000060 0.000060 0.000334 -0.002323 -106.379684 71.020905
[R_forearm]
12 322.776428 -0.000060 0.000030 0.209504 0.012586 -94.339058 322.776428
13 322.776428 -0.000060 0.000030 0.209504 0.012586 -94.339050 322.776428
[R_front_hand]
12 238.847015 -0.006795 2.210259 -2.635298 -10.645461 -26.312506 238.857239
13 238.847015 -0.006795 2.210259 -2.635298 -10.645461 -26.312506 238.857239
[R_weapon_bone]
12 155.664093 0.002503 -0.000030 0.003487 0.001180 -90.988930 155.664078
13 155.664093 0.002503 -0.000030 0.003487 0.001180 -90.988930 155.664078
[R_front_hand01_01]
12 87.624611 14.231146 22.918642 -154.633499 -59.950619 61.746044 91.683487
13 87.624611 14.231146 22.918642 -154.633499 -59.950634 61.746063 91.683487
[R_front_hand02_01]
12 89.356956 14.367283 -19.491137 154.602661 58.302849 63.744389 92.579636
13 89.356956 14.367283 -19.491137 154.602661 58.302849 63.744389 92.579636
[R_front_hand03_01]
12 87.286232 -22.307278 -0.143439 0.162155 -0.423168 -75.767921 90.091743
13 87.286232 -22.307278 -0.143439 0.162155 -0.423168 -75.767921 90.091743
[R_front_hand01_02]
12 71.020905 0.000060 0.000119 0.002323 -0.000334 106.381714 71.020905
13 71.020905 0.000060 0.000119 0.002323 -0.000334 106.381714 71.020905
[R_front_hand02_02]
12 71.020844 -0.000030 -0.000119 0.002323 -0.000334 106.381714 71.020836
13 71.020844 -0.000030 -0.000119 0.002323 -0.000334 106.381714 71.020836
[R_front_hand03_02]
12 71.020905 0.000000 0.000030 0.002323 -0.000334 106.381714 71.020905
13 71.020905 0.000000 0.000030 0.002323 -0.000334 106.381714 71.020905
[null_rope01_connect]
12 328.732483 0.000000 -0.000238 -76.855629 -75.261284 94.520370 328.732483
13 328.732483 0.000000 -0.000238 -57.976845 -73.660721 75.135826 328.732483
[Rope1_Seg01]
12 0.000029 -0.000048 0.000153 -130.300064 84.991211 61.308426 0.000162
13 0.000028 -0.000049 0.000166 -108.722450 81.074493 81.113625 0.000176
[Rope1_Seg02]
12 139.999863 -0.000179 0.000000 -0.030660 2.281678 -2.615970 139.999863
13 139.999863 -0.000179 0.000000 -0.886438 4.272361 -3.234006 139.999863
[Rope1_Seg03]
12 139.999924 0.000060 -0.000060 0.209733 2.010509 -2.804531 139.999924
13 139.999924 0.000060 -0.000060 -0.036861 3.113275 -3.601722 139.999924
[Rope1_Seg04]
12 139.999924 -0.000060 -0.000119 0.630388 1.850903 -3.352202 139.999924
13 139.999924 -0.000060 -0.000119 0.789774 2.404510 -3.954911 139.999924
[Rope1_Seg05]
12 139.999832 0.000119 -0.000060 -2.100134 3.501220 -0.443575 139.999832
13 139.999832 0.000119 -0.000060 -8.725716 8.489720 1.342339 139.999832
[Rope1_Seg06]
12 139.999954 0.000119 -0.000060 -2.067150 2.329242 0.686950 139.999954
13 139.999954 0.000119 -0.000060 -9.519721 6.818957 3.535647 139.999954
[Rope1_Seg07]
12 139.999985 0.000060 0.000000 -0.912839 1.213841 0.051357 139.999985
13 139.999985 0.000060 0.000000 -4.801981 3.213737 1.857698 139.999985
[Rope1_Seg09]
12 121.602913 0.000119 -0.000089 -89.793175 -1.359789 0.847147 121.602913
13 121.602913 0.000119 -0.000089 -89.793175 -1.359789 0.847147 121.602913
[L_mid_hand01]
12 103.859421 1.038730 8.195221 130.544373 -67.584534 -38.866943 104.187431
13 103.859421 1.038730 8.195221 130.544373 -67.584534 -38.866947 104.187431
[L_mid_hand02]
12 105.572853 -4.139662 -10.864139 -168.923172 43.409309 -73.498886 106.211075
13 105.572853 -4.139662 -10.864139 -168.923172 43.409309 -73.498886 106.211075
[L_mid_hand03]
12 104.641464 17.579376 -3.913581 -6.012627 17.808174 74.893669 106.179977
13 104.641464 17.579376 -3.913581 -6.012628 17.808178 74.893669 106.179977
[null_rope02_connect]
12 328.732849 0.000179 -0.000119 -118.619408 60.867424 42.845673 328.732849
13 328.732849 0.000179 -0.000119 -127.481941 65.499313 29.735878 328.732849
[Rope2_Seg01]
12 0.000019 0.000108 0.000000 118.789734 79.033226 55.845535 0.000110
13 0.000014 0.000107 0.000000 101.507126 70.173302 40.796856 0.000108
[Rope2_Seg02]
12 139.999741 -0.000060 -0.000119 -0.966052 0.076207 2.973818 139.999756
13 139.999741 -0.000060 -0.000119 -0.816594 -0.664626 3.716464 139.999756
[Rope2_Seg03]
12 140.000107 0.000030 0.000000 -1.214518 0.035256 4.102371 140.000107
13 140.000107 0.000030 0.000000 -0.890529 -0.950262 4.907079 140.000107
[Rope2_Seg04]
12 139.999802 0.000000 -0.000060 -2.443091 -3.984931 11.743774 139.999802
13 139.999802 0.000000 -0.000060 -1.606044 -7.300319 14.170499 139.999802
[Rope2_Seg05]
12 139.999985 -0.000060 0.000119 -0.848053 4.434309 4.275901 139.999985
13 139.999985 -0.000060 0.000119 -0.007683 5.493656 0.734070 139.999985
[Rope2_Seg06]
12 139.999893 -0.000030 -0.000119 0.827226 14.085578 -14.014960 139.999893
13 139.999893 -0.000030 -0.000119 -0.561486 17.574490 -17.786209 139.999893
[Rope2_Seg07]
12 139.999893 0.000060 -0.000060 0.903141 4.407722 -3.854645 139.999893
13 139.999893 0.000060 -0.000060 1.178293 5.948391 -5.501092 139.999893
[Rope2_Seg09]
12 121.338966 0.000089 -0.000060 33.793236 -1.359788 -0.847141 121.338966
13 121.338966 0.000089 -0.000060 33.793236 -1.359788 -0.847141 121.338966
[R_mid_hand01]
12 104.680779 11.144459 -10.335981 -16.212063 45.237240 70.462845 105.778534
13 104.680779 11.144459 -10.335981 -16.212063 45.237240 70.462852 105.778534
[R_mid_hand02]
12 104.070427 2.443552 8.231699 49.067368 -67.749771 39.286453 104.424065
13 104.070427 2.443552 8.231699 49.067387 -67.749794 39.286469 104.424065
[R_mid_hand03]
12 106.028137 -11.221827 -5.996406 -177.101105 15.551026 -76.585571 106.788818
13 106.028137 -11.221827 -5.996406 -177.101105 15.551029 -76.585594 106.788818
[spine02]
12 129.756927 0.001550 0.000119 -1.023899 -3.926965 6.770993 129.756927
13 129.756927 0.001550 0.000119 -1.023899 -3.926965 6.770993 129.756927
[spine03]
12 78.614052 0.081742 -4.899003 1.040680 4.146420 4.212375 78.766586
13 78.614052 0.081742 -4.899002 1.040681 4.146420 4.212376 78.766586
[pelvis]
12 169.435242 0.051022 0.000000 0.019518 -0.190233 -10.721436 169.435257
13 169.435242 0.051022 0.000000 0.019518 -0.190233 -10.721436 169.435257
[null_rope03_connect]
12 -1.257226 -2.466202 137.391083 -7.958539 -75.727425 95.688797 137.418976
13 -1.257226 -2.466202 137.391083 -9.995222 -71.511612 91.015518 137.418976
[null_rope04_connect]
12 -1.259640 -2.480268 -137.844437 -7.958539 -75.727425 95.688797 137.872513
13 -1.259640 -2.480268 -137.844437 -9.995222 -71.511612 91.015518 137.872513
[Rope3_Seg01]
12 0.000000 0.000000 0.000000 25.764212 23.199577 -56.019726 0.000000
13 0.000000 0.000000 0.000000 15.528594 -15.931119 -70.085846 0.000000
[Rope3_Seg02]
12 139.999924 -0.000119 0.000060 45.545063 39.448513 29.450901 139.999924
13 139.999924 -0.000119 0.000060 -18.994184 10.834394 65.690056 139.999924
[Rope3_Seg03]
12 139.999924 -0.000119 0.000119 45.269905 22.407656 -5.184536 139.999924
13 139.999924 -0.000119 0.000119 -64.233879 -1.337245 27.697536 139.999924
[Rope3_Seg04]
12 139.999924 0.000119 0.000000 3.611487 -10.081509 -19.228718 139.999924
13 139.999924 0.000119 0.000000 -81.916054 -13.725410 25.165728 139.999924
[Rope3_Seg05]
12 139.999924 -0.000238 0.000060 0.965927 -4.378765 -8.079794 139.999924
13 139.999924 -0.000238 0.000060 -9.481724 -10.639476 -4.133699 139.999924
[Rope3_Seg06]
12 139.999893 -0.000119 -0.000060 0.882360 -1.803150 -4.069152 139.999893
13 139.999893 -0.000119 -0.000060 -2.012976 -4.435498 -2.960054 139.999893
[Rope3_Seg07]
12 139.999771 0.000060 -0.000119 0.752709 -1.232441 -2.672610 139.999771
13 139.999771 0.000060 -0.000119 -0.732331 -2.756672 -1.989367 139.999771
[Rope3_Seg08]
12 139.999985 -0.000060 0.000000 0.665461 -0.770456 -1.620167 139.999985
13 139.999985 -0.000060 0.000000 -0.114720 -1.631787 -1.208540 139.999985
[Rope3_Seg09]
12 90.185997 -0.000179 -0.000060 89.793228 -1.359877 -0.847183 90.185997
13 90.185997 -0.000179 -0.000060 89.793228 -1.359877 -0.847183 90.185997
[R_rear_hand01]
12 103.366196 -6.073594 -10.757982 -177.714203 24.565960 -73.910950 104.101845
13 103.366196 -6.073594 -10.757982 -177.714203 24.565960 -73.910950 104.101845
[R_rear_hand02]
12 100.509819 12.039542 -7.992327 -12.874829 36.868488 72.167213 101.543350
13 100.509819 12.039542 -7.992327 -12.874834 36.868492 72.167213 101.543350
[R_rear_hand03]
12 101.539970 5.215704 5.435467 71.484581 -71.816628 21.513813 101.819031
13 101.539970 5.215704 5.435467 71.484627 -71.816643 21.513817 101.819031
[Rope4_Seg01]
12 0.000010 0.000029 -0.000114 -113.508759 57.196754 -111.485413 0.000118
13 0.000010 0.000028 -0.000111 -114.044792 52.696404 -114.067009 0.000115
[Rope4_Seg02]
12 139.999985 0.000060 0.000119 -0.485897 0.678076 2.036590 139.999985
13 139.999985 0.000060 0.000119 -1.553756 0.672121 4.900756 139.999985
[Rope4_Seg03]
12 139.999924 0.000000 -0.000238 -0.272376 0.999354 1.473205 139.999924
13 139.999924 0.000000 -0.000238 -0.533095 2.185490 2.573870 139.999924
[Rope4_Seg04]
12 139.999985 0.000000 0.000119 1.005935 4.309165 -0.405923 139.999985
13 139.999985 0.000000 0.000119 0.218182 3.170087 1.210010 139.999985
[Rope4_Seg05]
12 139.999802 -0.000060 -0.000119 -1.619790 -2.586556 2.774436 139.999802
13 139.999802 -0.000060 -0.000119 -3.234813 -5.525586 4.220486 139.999802
[Rope4_Seg06]
12 139.999924 0.000000 0.000060 -3.491474 -8.895300 5.317278 139.999924
13 139.999924 0.000000 0.000060 -4.096378 -11.090935 5.512565 139.999924
[Rope4_Seg07]
12 139.999802 0.000000 0.000000 -1.722792 -6.852466 3.549126 139.999802
13 139.999802 0.000000 0.000000 -1.579318 -7.104030 3.187459 139.999802
[Rope4_Seg08]
12 139.999924 0.000000 0.000119 -2.100489 -3.252310 1.709212 139.999924
13 139.999924 0.000000 0.000119 -2.118429 -3.948796 1.772431 139.999924
[Rope4_Seg09]
12 90.185791 0.000060 0.000060 -135.617828 2.228885 0.850567 90.185791
13 90.185791 0.000060 0.000060 -135.617828 2.228885 0.850567 90.185791
[L_rear_hand01]
12 101.696655 -8.392275 -7.654577 -12.874829 -36.868488 107.832764 102.329041
13 101.696655 -8.392275 -7.654577 -12.874834 -36.868492 107.832779 102.329041
[L_rear_hand02]
12 102.726799 -1.568258 5.773216 71.484581 71.816628 158.486160 102.900848
13 102.726799 -1.568258 5.773216 71.484627 71.816643 158.486160 102.900848
[L_rear_hand03]
12 104.552910 9.721220 -10.420293 -177.714203 -24.565960 -106.089035 105.519653
13 104.552910 9.721220 -10.420293 -177.714203 -24.565960 -106.089035 105.519653
